<svg id="Layer_1" data-name="Layer 1" xmlns="http://www.w3.org/2000/svg" viewBox="0 0 183.75 183.75"><defs><style>.cls-1{fill:#1da1f2;}.cls-2{fill:#fff;}</style></defs><title>logo-twitter-share</title><path class="cls-1" d="M174.56,183.75H9.19A9.19,9.19,0,0,1,0,174.56V9.19A9.19,9.19,0,0,1,9.19,0H174.56a9.19,9.19,0,0,1,9.19,9.19V174.56a9.19,9.19,0,0,1-9.19,9.19"/><path class="cls-2" d="M74.83,129.21c34.67,0,53.63-28.72,53.63-53.63,0-.82,0-1.63-.05-2.44a38.34,38.34,0,0,0,9.4-9.76,37.61,37.61,0,0,1-10.83,3,18.92,18.92,0,0,0,8.29-10.43,37.8,37.8,0,0,1-12,4.58A18.87,18.87,0,0,0,91.18,77.69,53.51,53.51,0,0,1,52.33,58a18.86,18.86,0,0,0,5.83,25.16,18.72,18.72,0,0,1-8.54-2.36c0,.08,0,.16,0,.24A18.86,18.86,0,0,0,64.75,99.52a18.84,18.84,0,0,1-8.51.32,18.87,18.87,0,0,0,17.61,13.09A37.82,37.82,0,0,1,50.43,121a38.36,38.36,0,0,1-4.5-.26,53.35,53.35,0,0,0,28.89,8.47"/></svg>